<svg version="1.2" xmlns="http://www.w3.org/2000/svg" viewBox="0 0 370 68" width="370" height="68">
	<title>logo-svg</title>
	<style>
	</style>
	<g id="Layer">
		<g id="Layer">
			<path id="Layer" fill="hsl(16, 84%, 55%)" d="m8.7 67.2l-8.7-8.7 24.9-24.9-24.9-24.9 8.7-8.7 33.6 33.6z"/>
		</g>
		<g id="Layer">
			<path id="Layer" fill="hsl(16, 84%, 55%)" d="m43.8 56.7h56.2v12.3h-56.2z"/>
		</g>
	</g>
	<g id="Layer">
		<path id="Layer" fill="hsl(16, 84%, 55%)" fill-rule="evenodd" d="m146.3 7q11.9 0 19.1 7.9 7.2 7.8 7.2 20.4 0 12.2-7.2 20-7.3 7.8-19.1 7.8-11.8 0-19.1-7.8-7.2-7.8-7.2-20 0-12.5 7.3-20.4 7.2-7.9 19-7.9zm-14.5 28.3q0 8.1 3.8 13 3.8 4.9 10.7 4.9 6.8 0 10.7-4.8 3.9-4.9 3.9-13.1 0-8.7-3.9-13.5-3.9-4.9-10.8-4.9-6.7 0-10.6 4.9-3.8 4.8-3.8 13.5zm58.4-12.3v22q0 4.5 1.4 7 1.4 2.5 5.4 2.5 4.4 0 6.3-2.7 2-2.6 2-8.4v-20.4h10.6v38.8h-10.1v-5.4h-0.2q-4 6.5-12 6.5-7.5 0-10.8-3.9-3.3-3.9-3.3-11.9v-24.1zm44.5-14.7v19.5h0.2q1.7-2.7 4.9-4.2 3.2-1.6 7.3-1.6 7.1 0 11.6 5.7 4.4 5.7 4.4 14.7 0 9.1-4.4 14.8-4.4 5.7-11.7 5.7-9.4 0-12.7-6h-0.1v4.9h-10.1v-53.5c0 0 10.6 0 10.6 0zm-0.4 34.2q0 5.6 2.5 9 2.5 3.3 6.6 3.3 4.1 0 6.6-3.3 2.5-3.3 2.5-9 0-5.7-2.5-9.1-2.4-3.4-6.7-3.4-4.2 0-6.6 3.5-2.4 3.4-2.4 9zm53.4-20.5q17 0.1 17 11v20.6q0 5.7 1.3 8.2h-10.8q-0.6-1.8-0.7-3.7-4.8 4.8-13.1 4.8-6.1 0-9.6-3.1-3.6-3.1-3.6-8.6 0-5.3 3.4-8.2 3.4-3.1 12.5-3.9 6.5-0.7 8.2-1.7 1.7-1 1.7-3.1 0-2.6-1.6-3.9-1.5-1.3-5.2-1.3-3.4 0-5.1 1.4-1.7 1.4-2 4.5h-10.7q0.4-6.4 5.3-9.7 4.8-3.3 13-3.3zm-8.8 28.8q0 4.9 6.5 4.9 8.5 0 8.6-8.7v-4.2q-1.3 1.3-6.4 1.9-4.5 0.5-6.6 1.9-2.1 1.3-2.1 4.2zm45-42.5v8.7h-10.7v-8.7zm0 14.7v38.8h-10.6v-38.8zm46.2-14.7v53.5h-10.2v-4.9h-0.1q-3.5 6-11.8 6-8 0-12.7-5.9-4.7-5.8-4.7-14.9 0-8.9 4.8-14.5 4.7-5.6 12.4-5.6 3.5 0 6.6 1.5 3.1 1.4 4.9 4.3h0.1v-19.5zm-28.8 34.1q0 5.3 2.5 8.9 2.5 3.5 6.9 3.5 4.6 0 6.8-3.3 2.3-3.3 2.3-9.2 0-5.8-2.4-9.1-2.4-3.2-6.8-3.2-4.6 0-6.9 3.4-2.4 3.4-2.4 9z"/>
	</g>
</svg>
